<svg width="28" height="28" viewBox="0 0 28 28" fill="none" xmlns="http://www.w3.org/2000/svg">
<path d="M26.5999 1.41997C26.2263 1.04547 25.719 0.835002 25.1899 0.835002C24.6609 0.835002 24.1536 1.04547 23.7799 1.41997L13.9999 11.18L4.21994 1.39997C3.84628 1.02547 3.33898 0.815002 2.80994 0.815002C2.28091 0.815002 1.7736 1.02547 1.39994 1.39997C0.619941 2.17997 0.619941 3.43997 1.39994 4.21997L11.1799 14L1.39994 23.78C0.619941 24.56 0.619941 25.82 1.39994 26.6C2.17994 27.38 3.43994 27.38 4.21994 26.6L13.9999 16.82L23.7799 26.6C24.5599 27.38 25.8199 27.38 26.5999 26.6C27.3799 25.82 27.3799 24.56 26.5999 23.78L16.8199 14L26.5999 4.21997C27.3599 3.45997 27.3599 2.17997 26.5999 1.41997Z" fill="#2D2E83"/>
</svg>
