<svg width="200" height="56" viewBox="0 0 200 56" fill="none" xmlns="http://www.w3.org/2000/svg">
<path d="M2.974 20.5532C2.06755 21.2515 1.33199 22.1331 0.819498 23.1355C0.307008 24.1378 0.0301496 25.2364 0.00856887 26.3533C-0.0130119 27.4701 0.221214 28.5778 0.694626 29.5978C1.16804 30.6178 1.86903 31.5251 2.74788 32.2553C3.69312 31.5677 4.46878 30.6877 5.01943 29.6783C5.57007 28.6689 5.88211 27.5549 5.93325 26.4161C5.97257 25.4704 5.93325 24.3168 5.49575 23.6643C5.05825 23.0118 3.66711 21.7258 2.974 20.5532ZM4.7289 26.3877C4.65369 27.9851 3.96947 29.5 2.80686 30.643C1.73415 29.4162 1.16736 27.853 1.21418 26.2506C1.26907 24.8317 1.81391 23.4708 2.76262 22.383C3.25419 23.0638 4.18326 23.5839 4.44379 24.2742C4.68035 24.9543 4.77718 25.6721 4.7289 26.3877Z" fill="white"/>
<path d="M30.8411 14.6288C30.9246 15.5083 31.6866 16.2742 32.3551 16.9929C33.1165 17.7807 34.0407 18.4067 35.0684 18.8309C36.096 19.2551 37.2045 19.4681 38.3227 19.4563H38.7308C38.9019 18.327 38.8117 17.1753 38.4667 16.0834C38.1217 14.9915 37.5304 13.9862 36.735 13.1395C35.9909 12.332 35.0706 11.6925 34.0399 11.2667C33.0092 10.8409 31.8934 10.6392 30.7722 10.6761H30.6494C30.8951 11.9858 30.7575 13.7494 30.8411 14.6288ZM32.0552 11.9243C33.5095 12.1621 34.8408 12.8572 35.8403 13.9007C36.9607 15.0901 37.584 16.6362 37.5903 18.2411C35.9277 18.103 34.3791 17.3709 33.2498 16.1891C32.6994 15.7221 32.293 15.1185 32.0749 14.4444C31.9176 13.7494 32.1339 12.766 32.0552 11.9243Z" fill="white"/>
<path d="M148.056 33.7258C147.613 33.3711 147.392 32.7328 147.392 31.8345V23.1206C147.392 20.8164 146.245 19.6643 143.951 19.6643H142.59V32.2553C142.59 34.1466 143.081 35.5839 144.064 36.5674C145.047 37.5555 146.493 38.052 148.356 38.052C149.383 38.052 150.12 37.8345 150.563 37.3995C151.005 36.9645 151.226 36.2506 151.226 35.2577V34.2553H150.347C149.255 34.26 148.498 34.0851 148.056 33.7258Z" fill="white"/>
<path d="M144.939 17.9385C145.688 17.93 146.403 17.6404 146.933 17.1317C147.463 16.6229 147.765 15.9352 147.776 15.2151C147.78 14.8611 147.707 14.5101 147.562 14.1845C147.417 13.8589 147.204 13.5658 146.935 13.3239C146.675 13.0693 146.364 12.8678 146.021 12.7313C145.678 12.5949 145.31 12.5262 144.939 12.5295C144.199 12.5357 143.492 12.8211 142.969 13.3243C142.445 13.8275 142.149 14.5083 142.142 15.2199C142.142 15.5722 142.214 15.921 142.356 16.2458C142.498 16.5707 142.706 16.8649 142.968 17.1111C143.219 17.373 143.524 17.5818 143.863 17.7242C144.203 17.8667 144.569 17.9397 144.939 17.9385Z" fill="white"/>
<path d="M158.04 15.0402H156.929C156.188 15.0402 155.436 15.4657 154.672 16.3168C154.175 16.7972 153.794 17.3772 153.556 18.0154C153.318 18.6537 153.229 19.3345 153.296 20.0095V31.1915C153.296 33.3995 153.906 35.1064 155.125 36.2979C156.344 37.4894 158.148 38.0946 160.532 38.0946C161.646 38.163 162.751 37.8718 163.673 37.2671C164.032 36.999 164.318 36.6521 164.509 36.2557C164.7 35.8592 164.789 35.4246 164.769 34.9882V33.3286H164.587C163.847 33.7667 162.687 33.9874 161.107 33.9905C159.077 33.9905 158.054 32.87 158.054 30.6383V23.3617H161.894C162.667 23.4068 163.428 23.1571 164.012 22.6667C164.242 22.4788 164.428 22.2466 164.558 21.9851C164.689 21.7237 164.761 21.4388 164.769 21.1489V19.2577H158.04V15.0402Z" fill="white"/>
<path d="M23.8165 24.1087C25.9094 22.7056 27.5495 20.7642 28.5492 18.5067C29.5489 16.2491 29.8679 13.7665 29.4696 11.3428L29.2484 10.2222C28.7941 8.38934 27.9395 6.67043 26.7414 5.17964C25.5434 3.68886 24.0292 2.46034 22.2995 1.57569C20.5699 0.69104 18.6643 0.170509 16.7094 0.0486781C14.7545 -0.0731533 12.7951 0.206502 10.9612 0.869067C9.12729 1.53163 7.46097 2.56194 6.0729 3.89155C4.68483 5.22117 3.60679 6.81964 2.91038 8.58081C2.21398 10.342 1.91515 12.2255 2.03375 14.1063C2.15236 15.9871 2.68567 17.8221 3.59827 19.4894L3.66218 19.5981L3.76541 19.7636L4.22748 20.4965C5.80434 22.8621 8.12493 24.6821 10.8515 25.6915C13.5782 26.7009 16.5685 26.8471 19.3875 26.1087V53.1537L27.9457 46.2553L32.8614 56L39.065 52.7612L34.2034 43.6028L43.9021 41.6596L23.8165 24.1087ZM19.7709 4.29315C19.9415 3.49674 20.0255 2.68545 20.0216 1.87234C21.9204 2.52133 23.6304 3.59764 25.0088 5.01149C26.3873 6.42534 27.3942 8.13573 27.9457 10C26.7357 9.75718 25.574 9.32937 24.5047 8.73286C22.692 7.73488 21.1203 6.3779 19.8938 4.75178L19.7414 4.54374L19.7709 4.29315ZM3.21977 13.2766C3.21155 11.4373 3.64061 9.62054 4.47416 7.96517C5.30771 6.30979 6.52368 4.85961 8.02915 3.72546C9.53462 2.59131 11.2897 1.80322 13.1603 1.4214C15.031 1.03958 16.9676 1.07415 18.8222 1.52246C19.0237 5.53664 16.3348 10.5721 11.7583 14.6052C9.69237 16.4486 7.31528 17.9404 4.72888 19.0165C3.73768 17.257 3.21895 15.2873 3.21977 13.2861V13.2766ZM19.3875 23.8865V24.9078C16.81 25.6487 14.0532 25.5741 11.5232 24.6948C8.99308 23.8155 6.82338 22.1781 5.33351 20.0236C7.98436 18.897 10.4215 17.3534 12.5448 15.4563C15.3154 13.0914 17.4992 10.1589 18.9352 6.87471L19.2941 6.00473L19.9675 6.72341C21.1045 7.92762 22.4316 8.952 23.9001 9.75886C25.2396 10.5009 26.7091 11.0009 28.2357 11.234C28.3612 11.9195 28.427 12.6137 28.4324 13.3097C28.4309 15.2866 27.9272 17.2333 26.9651 18.9803C26.003 20.7272 24.6116 22.2216 22.912 23.3333L22.2189 22.7281L19.3973 20.26L19.3875 23.8865ZM37.5461 52.3215L33.3776 54.5106L28.2996 44.5485L20.5132 50.8369V22.6903L21.1571 23.2719L21.8994 23.9196L22.0469 24.0473L22.8383 24.7376L41.518 41.0733L32.4878 42.8794L37.5461 52.3215Z" fill="white"/>
<path d="M62.1 20.2364C61.0181 19.436 59.6786 19.0261 58.3149 19.078C55.1328 19.078 52.5979 20.0331 50.7103 21.9433C49.7805 22.8727 49.0512 23.9699 48.5644 25.1717C48.0776 26.3735 47.8429 27.6562 47.8739 28.9456C47.8511 30.1868 48.1022 31.4185 48.6106 32.5596C49.119 33.7006 49.8732 34.7249 50.8234 35.565C51.7471 36.4299 52.8391 37.1111 54.0369 37.5695C55.2346 38.0279 56.5147 38.2545 57.8036 38.2364C59.2743 38.3036 60.7295 37.9231 61.9623 37.1489C62.4469 36.8499 62.8457 36.4387 63.1223 35.953C63.3988 35.4673 63.5442 34.9226 63.5452 34.3688V32.2317H63.3387C62.4309 33.3822 60.7318 33.9574 58.2411 33.9574C57.5122 33.9891 56.785 33.8642 56.1124 33.5918C55.4399 33.3195 54.8388 32.9065 54.3528 32.383C53.3376 31.239 52.8107 29.7675 52.8781 28.2648C52.8712 27.6091 53.0082 26.9595 53.2801 26.3582C53.552 25.7569 53.9527 25.2176 54.456 24.7754C54.9431 24.3124 55.5203 23.9464 56.1546 23.6981C56.7889 23.4499 57.4679 23.3243 58.1527 23.3286C59.2952 23.301 60.4329 23.4823 61.5052 23.8629C62.2834 24.1162 62.949 24.6163 63.3928 25.2813H63.5698V23.1064C63.5769 22.5505 63.4475 22.0008 63.1921 21.5021C62.9367 21.0034 62.5625 20.5698 62.1 20.2364Z" fill="white"/>
<path d="M73.5388 31.6028L78.3807 26.5816C80.0193 24.8574 80.8386 23.212 80.8386 21.6454C80.8359 21.3363 80.7693 21.0308 80.6427 20.7467C80.5161 20.4626 80.3321 20.2056 80.1012 19.9905C79.7919 19.729 79.4309 19.5301 79.0399 19.4058C78.6488 19.2815 78.2357 19.2343 77.8253 19.2671H69.0557C68.2049 19.2128 67.3627 19.4582 66.6863 19.9574C66.42 20.172 66.2075 20.4416 66.0645 20.7462C65.9215 21.0507 65.8518 21.3823 65.8605 21.7163V23.1348H75.3674C74.8958 23.8889 74.3421 24.5926 73.7157 25.234L68.8394 30.3404C66.8731 32.3641 65.89 34.0709 65.89 35.4468C65.8737 35.7892 65.9419 36.1304 66.0888 36.4426C66.2357 36.7549 66.4573 37.0293 66.7355 37.2435C67.452 37.7274 68.3199 37.9594 69.1933 37.9007H78.6265C79.2641 37.8982 79.8757 37.6574 80.3323 37.2293C80.5666 37.0476 80.757 36.8189 80.8903 36.5593C81.0236 36.2997 81.0965 36.0152 81.104 35.7258V33.9291H71.6954C72.2224 33.093 72.8403 32.3132 73.5388 31.6028Z" fill="white"/>
<path d="M98.0583 29.5697C99.4543 28.9031 100.157 27.7305 100.157 26.052C100.192 25.0761 100.003 24.1049 99.606 23.2064C99.2086 22.3079 98.6115 21.504 97.8567 20.8511C96.3763 19.5317 94.4232 18.8134 92.4052 18.8463C91.1265 18.804 89.8534 19.029 88.6738 19.5057C87.4941 19.9824 86.436 20.6995 85.5724 21.6076C83.8126 23.4515 82.9327 25.9023 82.9327 28.9598C82.89 30.2127 83.1238 31.46 83.6186 32.6197C84.1134 33.7794 84.858 34.8251 85.8034 35.688C86.6761 36.5242 87.7122 37.1862 88.8519 37.6358C89.9917 38.0853 91.2127 38.3135 92.4445 38.3073C97.1046 38.3073 99.4363 36.9046 99.4396 34.0993V32.6477H99.2577C97.9468 33.8203 95.9806 34.4082 93.3589 34.4113C92.0518 34.4494 90.767 34.0795 89.6967 33.357C89.2188 33.0379 88.8158 32.6261 88.5135 32.1481C88.2112 31.6701 88.0165 31.1364 87.9418 30.5816H91.0976C94.3387 30.5753 96.6589 30.238 98.0583 29.5697ZM87.8828 27.2908L87.9221 26.6714C87.9439 25.6227 88.3716 24.6196 89.1215 23.8582C89.4841 23.4819 89.926 23.1844 90.4177 22.9855C90.9093 22.7865 91.4394 22.6907 91.9726 22.7045C92.9264 22.6508 93.8723 22.8981 94.6664 23.409C94.9949 23.6539 95.2562 23.9724 95.4275 24.3366C95.5988 24.7008 95.6751 25.0998 95.6496 25.4988C95.6532 25.8201 95.5433 26.1331 95.3379 26.3865C95.1325 26.6399 94.8438 26.8187 94.519 26.8936C93.7685 27.1584 92.279 27.2908 90.0506 27.2908H87.8828Z" fill="white"/>
<path d="M116.512 20.2364C115.429 19.4382 114.09 19.0285 112.727 19.078C109.541 19.078 107.005 20.0331 105.117 21.9433C104.188 22.8733 103.46 23.9706 102.973 25.1723C102.486 26.374 102.251 27.6563 102.281 28.9456C102.258 30.1868 102.509 31.4185 103.018 32.5596C103.526 33.7006 104.28 34.7249 105.23 35.565C106.153 36.4298 107.244 37.1109 108.441 37.5693C109.638 38.0277 110.917 38.2544 112.206 38.2364C113.678 38.3056 115.136 37.9249 116.369 37.1489C116.853 36.8493 117.251 36.4379 117.526 35.9522C117.802 35.4665 117.947 34.9221 117.947 34.3688V32.2317H117.77C116.859 33.3822 115.162 33.9574 112.678 33.9574C111.948 33.9898 111.22 33.8652 110.546 33.5929C109.873 33.3205 109.271 32.9072 108.784 32.383C107.769 31.239 107.242 29.7675 107.31 28.2648C107.303 27.6091 107.44 26.9595 107.712 26.3582C107.984 25.7569 108.384 25.2176 108.888 24.7754C109.375 24.3124 109.952 23.9464 110.586 23.6981C111.22 23.4499 111.899 23.3243 112.584 23.3286C113.728 23.301 114.868 23.4823 115.942 23.8629C116.718 24.1174 117.381 24.6174 117.824 25.2813H118.001V23.1064C118.006 22.5489 117.873 21.9984 117.614 21.4996C117.355 21.0009 116.978 20.568 116.512 20.2364Z" fill="white"/>
<path d="M130.487 18.8369C129.618 18.8468 128.772 19.1125 128.064 19.5981C127.35 20.0435 126.744 20.6322 126.289 21.3239V16.0095C126.307 15.6102 126.238 15.2117 126.087 14.8396C125.935 14.4674 125.704 14.1299 125.409 13.8487C124.709 13.2731 123.802 12.9831 122.883 13.0402H121.373V34.7896C121.373 36.8605 122.473 37.896 124.672 37.896H126.26V27.3286C126.26 25.8345 126.614 24.7313 127.321 24.0189C127.624 23.6863 127.996 23.4192 128.414 23.235C128.832 23.0508 129.285 22.9538 129.745 22.9504C130.257 22.9294 130.768 23.0105 131.246 23.1887C131.724 23.3669 132.159 23.6383 132.522 23.9858C133.23 24.6761 133.584 25.7447 133.584 27.1915V34.7849C133.557 35.2053 133.62 35.6265 133.771 36.0221C133.922 36.4176 134.156 36.7788 134.459 37.0827C134.783 37.3618 135.16 37.5769 135.57 37.7156C135.98 37.8543 136.414 37.914 136.848 37.8913H138.426V26.9835C138.426 24.3609 137.731 22.3483 136.342 20.9456C134.952 19.5429 133.001 18.84 130.487 18.8369Z" fill="white"/>
<path d="M180.146 20.6477C179.389 20.0516 178.519 19.6021 177.584 19.3239C176.572 19.0351 175.519 18.8948 174.463 18.9078C172.12 18.9078 170.362 19.368 169.188 20.2884C168.014 21.2104 167.429 22.2648 167.429 23.461V24.9456H167.606C168.222 24.2872 168.992 23.7785 169.852 23.461C171.09 22.9882 172.414 22.7629 173.745 22.7991C175.23 22.7991 176.293 23.0449 176.936 23.5366C177.584 24.0095 177.919 24.9267 177.919 26.2128V26.4539H176.233C172.86 26.4539 170.416 26.9771 168.898 28.0236C168.177 28.4911 167.589 29.1262 167.191 29.87C166.792 30.6138 166.595 31.4424 166.618 32.2789C166.603 33.1031 166.793 33.9187 167.171 34.6586C167.548 35.3984 168.103 36.0413 168.79 36.5343C170.235 37.6406 172.095 38.1938 174.37 38.1938H175.353C177.298 38.2668 179.194 37.5972 180.627 36.331C181.302 35.7156 181.832 34.9697 182.185 34.1424C182.537 33.3152 182.704 32.4254 182.672 31.5319V27.253C182.701 25.8922 182.476 24.5376 182.009 23.253C181.637 22.2418 180.994 21.3431 180.146 20.6477ZM177.938 31.5697C177.938 33.4799 176.911 34.435 174.856 34.435C173.991 34.4854 173.132 34.2737 172.398 33.8298C172.113 33.6403 171.883 33.3842 171.729 33.0857C171.575 32.7871 171.503 32.4558 171.518 32.1229C171.497 31.7618 171.584 31.4023 171.769 31.0872C171.954 30.7721 172.228 30.5146 172.561 30.3452C173.249 29.9669 174.473 29.7778 176.218 29.7778H177.938V31.5697Z" fill="white"/>
<path d="M193.831 26.7423C192.756 26.6221 191.7 26.3728 190.69 26C190.469 25.9091 190.282 25.7571 190.151 25.5635C190.021 25.3698 189.953 25.1432 189.957 24.9125C189.957 23.5319 191.248 22.8416 193.831 22.8416C194.925 22.8345 196.013 22.9941 197.056 23.3144C197.915 23.5427 198.703 23.9696 199.351 24.5579H199.533V22.7991C199.533 21.7652 199.007 20.8432 197.955 20.0331C196.898 19.2293 195.374 18.8274 193.359 18.8274C190.944 18.8274 188.977 19.4578 187.46 20.7187C186.742 21.2635 186.162 21.9583 185.765 22.7503C185.367 23.5424 185.162 24.4112 185.164 25.2908C185.133 25.914 185.249 26.536 185.504 27.1095C185.76 27.683 186.148 28.1929 186.639 28.6005C187.622 29.4043 189.146 29.9433 191.211 30.2175C192.813 30.4303 193.885 30.6903 194.426 30.9787C194.67 31.0983 194.875 31.2812 195.018 31.5067C195.16 31.7322 195.234 31.9915 195.232 32.2553C195.232 33.6139 194.06 34.2931 191.717 34.2931C190.577 34.2914 189.444 34.1175 188.36 33.7778C187.457 33.5385 186.618 33.1143 185.902 32.5343H185.74V34.6383C185.74 35.6028 186.338 36.4539 187.534 37.1915C188.867 37.963 190.403 38.3457 191.958 38.2931C194.54 38.2931 196.53 37.7415 197.926 36.6383C199.322 35.5351 200.011 33.9953 199.995 32.0189C199.995 29.1442 197.94 27.3853 193.831 26.7423Z" fill="white"/>
</svg>
