<svg width="300" height="300" viewBox="0 0 300 300" fill="none" xmlns="http://www.w3.org/2000/svg">
<g id="icon/av/timer_24px">
<path id="icon/av/timer_24px_2" fill-rule="evenodd" clip-rule="evenodd" d="M137.531 49.9839C137.531 43.1089 143.156 37.4839 150.031 37.4839C213.406 37.4839 264.531 89.8589 262.406 153.609C260.531 212.359 211.406 261.109 152.656 262.484C89.2805 263.984 37.5305 212.984 37.5305 149.984C37.5305 117.484 51.2805 88.3589 73.2805 67.9839C78.2805 63.3589 86.0305 63.4839 90.7805 68.2339L158.781 136.109C163.656 140.984 163.656 148.859 158.781 153.734C153.906 158.609 146.031 158.609 141.156 153.734L82.2805 94.7339C69.9055 109.734 62.5305 128.984 62.5305 149.984C62.5305 198.859 102.406 238.234 151.531 237.484C199.656 236.734 239.281 194.859 237.531 146.734C235.906 104.109 203.906 69.4839 162.531 63.4839V74.9839C162.531 81.8589 156.906 87.4839 150.031 87.4839C143.156 87.4839 137.531 81.8589 137.531 74.9839V49.9839ZM75.0305 149.984C75.0305 143.08 80.627 137.484 87.5305 137.484C94.4341 137.484 100.031 143.08 100.031 149.984C100.031 156.887 94.4341 162.484 87.5305 162.484C80.627 162.484 75.0305 156.887 75.0305 149.984ZM137.531 212.484C137.531 205.58 143.127 199.984 150.031 199.984C156.934 199.984 162.531 205.58 162.531 212.484C162.531 219.388 156.934 224.984 150.031 224.984C143.127 224.984 137.531 219.388 137.531 212.484ZM212.531 137.484C205.627 137.484 200.031 143.08 200.031 149.984C200.031 156.887 205.627 162.484 212.531 162.484C219.434 162.484 225.031 156.887 225.031 149.984C225.031 143.08 219.434 137.484 212.531 137.484Z" fill="#E6007E"/>
</g>
</svg>
